<svg width="39" height="141" viewBox="0 0 39 141" fill="none" xmlns="http://www.w3.org/2000/svg">
<mask id="path-1-inside-1_281_10" fill="white">
<path d="M0 12C0 5.37258 5.37258 0 12 0H39V141H12C5.37258 141 0 135.627 0 129V12Z"/>
</mask>
<path d="M0 12C0 5.37258 5.37258 0 12 0H39V141H12C5.37258 141 0 135.627 0 129V12Z" fill="white"/>
<path d="M-1 12C-1 4.8203 4.8203 -1 12 -1H39V1H12C5.92487 1 1 5.92487 1 12H-1ZM39 142H12C4.8203 142 -1 136.18 -1 129H1C1 135.075 5.92487 140 12 140H39V142ZM12 142C4.8203 142 -1 136.18 -1 129V12C-1 4.8203 4.8203 -1 12 -1V1C5.92487 1 1 5.92487 1 12V129C1 135.075 5.92487 140 12 140V142ZM39 0V141V0Z" fill="#DBA032" mask="url(#path-1-inside-1_281_10)"/>
<path d="M24.072 128.196C24.072 128.308 24.064 128.416 24.048 128.52C24.04 128.624 24.02 128.74 23.988 128.868L23.196 128.796C23.228 128.66 23.244 128.528 23.244 128.4C23.244 128.04 23.104 127.752 22.824 127.536C22.536 127.312 22.096 127.144 21.504 127.032C20.904 126.92 20.136 126.848 19.2 126.816L15.6 126.696L15.6 120.996L24 120.996L24 121.872L16.128 121.872L16.368 121.644L16.368 126.132L16.116 125.916L19.176 126.024C20.016 126.056 20.744 126.116 21.36 126.204C21.968 126.292 22.476 126.42 22.884 126.588C23.284 126.756 23.584 126.972 23.784 127.236C23.976 127.5 24.072 127.82 24.072 128.196ZM24.06 115.666C24.06 116.322 23.924 116.898 23.652 117.394C23.372 117.89 22.992 118.278 22.512 118.558C22.024 118.838 21.468 118.978 20.844 118.978C20.22 118.978 19.668 118.846 19.188 118.582C18.708 118.31 18.332 117.942 18.06 117.478C17.78 117.006 17.64 116.478 17.64 115.894C17.64 115.302 17.776 114.778 18.048 114.322C18.312 113.858 18.688 113.494 19.176 113.23C19.656 112.966 20.212 112.834 20.844 112.834C20.884 112.834 20.928 112.838 20.976 112.846C21.016 112.846 21.06 112.846 21.108 112.846L21.108 118.33L20.472 118.33L20.472 113.302L20.724 113.638C20.268 113.638 19.864 113.738 19.512 113.938C19.152 114.13 18.872 114.394 18.672 114.73C18.472 115.066 18.372 115.454 18.372 115.894C18.372 116.326 18.472 116.714 18.672 117.058C18.872 117.402 19.152 117.67 19.512 117.862C19.872 118.054 20.284 118.15 20.748 118.15L20.88 118.15C21.36 118.15 21.784 118.046 22.152 117.838C22.512 117.622 22.796 117.326 23.004 116.95C23.204 116.566 23.304 116.13 23.304 115.642C23.304 115.258 23.236 114.902 23.1 114.574C22.964 114.238 22.756 113.95 22.476 113.71L23.028 113.23C23.364 113.51 23.62 113.862 23.796 114.286C23.972 114.702 24.06 115.162 24.06 115.666ZM21.336 106.964C21.496 107.332 21.624 107.704 21.72 108.08C21.808 108.448 21.852 108.816 21.852 109.184C21.852 109.928 21.684 110.516 21.348 110.948C21.004 111.38 20.476 111.596 19.764 111.596L17.7 111.596L17.7 110.756L19.716 110.756C20.196 110.756 20.556 110.6 20.796 110.288C21.036 109.976 21.156 109.556 21.156 109.028C21.156 108.708 21.116 108.372 21.036 108.02C20.948 107.668 20.824 107.312 20.664 106.952L21.336 106.964ZM24 107.036L17.7 107.036L17.7 106.184L24 106.184L24 107.036ZM24.06 101.065C24.06 101.721 23.924 102.297 23.652 102.793C23.372 103.289 22.992 103.677 22.512 103.957C22.024 104.237 21.468 104.377 20.844 104.377C20.22 104.377 19.668 104.245 19.188 103.981C18.708 103.709 18.332 103.341 18.06 102.877C17.78 102.405 17.64 101.877 17.64 101.293C17.64 100.701 17.776 100.177 18.048 99.7206C18.312 99.2566 18.688 98.8926 19.176 98.6286C19.656 98.3646 20.212 98.2326 20.844 98.2326C20.884 98.2326 20.928 98.2366 20.976 98.2446C21.016 98.2446 21.06 98.2446 21.108 98.2446L21.108 103.729L20.472 103.729L20.472 98.7006L20.724 99.0366C20.268 99.0366 19.864 99.1366 19.512 99.3366C19.152 99.5286 18.872 99.7926 18.672 100.129C18.472 100.465 18.372 100.853 18.372 101.293C18.372 101.725 18.472 102.113 18.672 102.457C18.872 102.801 19.152 103.069 19.512 103.261C19.872 103.453 20.284 103.549 20.748 103.549L20.88 103.549C21.36 103.549 21.784 103.445 22.152 103.237C22.512 103.021 22.796 102.725 23.004 102.349C23.204 101.965 23.304 101.529 23.304 101.041C23.304 100.657 23.236 100.301 23.1 99.9726C22.964 99.6366 22.756 99.3486 22.476 99.1086L23.028 98.6286C23.364 98.9086 23.62 99.2606 23.796 99.6846C23.972 100.101 24.06 100.561 24.06 101.065ZM24 96.3466L17.7 96.3466L17.7 95.4946L20.484 95.4946L20.484 91.5226L17.7 91.5226L17.7 90.6706L24 90.6706L24 91.5226L21.216 91.5226L21.216 95.4946L24 95.4946L24 96.3466ZM24 88.2489L17.7 88.2489L17.7 87.3969L22.704 87.3969L17.7 83.1849L17.7 82.4289L24 82.4289L24 83.2809L18.984 83.2809L24 87.4809L24 88.2489ZM24.06 77.2872C24.06 77.9432 23.924 78.5192 23.652 79.0152C23.372 79.5112 22.992 79.8992 22.512 80.1792C22.024 80.4592 21.468 80.5992 20.844 80.5992C20.22 80.5992 19.668 80.4672 19.188 80.2032C18.708 79.9312 18.332 79.5632 18.06 79.0992C17.78 78.6272 17.64 78.0992 17.64 77.5152C17.64 76.9232 17.776 76.3992 18.048 75.9432C18.312 75.4792 18.688 75.1152 19.176 74.8512C19.656 74.5872 20.212 74.4552 20.844 74.4552C20.884 74.4552 20.928 74.4592 20.976 74.4672C21.016 74.4672 21.06 74.4672 21.108 74.4672L21.108 79.9512L20.472 79.9512L20.472 74.9232L20.724 75.2592C20.268 75.2592 19.864 75.3592 19.512 75.5592C19.152 75.7512 18.872 76.0152 18.672 76.3512C18.472 76.6872 18.372 77.0752 18.372 77.5152C18.372 77.9472 18.472 78.3352 18.672 78.6792C18.872 79.0232 19.152 79.2912 19.512 79.4832C19.872 79.6752 20.284 79.7712 20.748 79.7712L20.88 79.7712C21.36 79.7712 21.784 79.6672 22.152 79.4592C22.512 79.2432 22.796 78.9472 23.004 78.5712C23.204 78.1872 23.304 77.7512 23.304 77.2632C23.304 76.8792 23.236 76.5232 23.1 76.1952C22.964 75.8592 22.756 75.5712 22.476 75.3312L23.028 74.8512C23.364 75.1312 23.62 75.4832 23.796 75.9072C23.972 76.3232 24.06 76.7832 24.06 77.2872ZM24 69.4286L17.7 69.4286L17.7 66.6446C17.7 65.9326 17.836 65.3726 18.108 64.9646C18.38 64.5486 18.78 64.3406 19.308 64.3406C19.82 64.3406 20.216 64.5366 20.496 64.9286C20.768 65.3206 20.904 65.8366 20.904 66.4766L20.652 66.3086C20.652 65.5566 20.792 65.0046 21.072 64.6526C21.352 64.3006 21.756 64.1246 22.284 64.1246C22.828 64.1246 23.252 64.3246 23.556 64.7246C23.852 65.1166 24 65.7286 24 66.5606L24 69.4286ZM23.328 68.6006L23.328 66.5966C23.328 66.0606 23.244 65.6566 23.076 65.3846C22.9 65.1046 22.62 64.9646 22.236 64.9646C21.852 64.9646 21.572 65.0886 21.396 65.3366C21.22 65.5846 21.132 65.9766 21.132 66.5126L21.132 68.6006L23.328 68.6006ZM20.496 68.6006L20.496 66.7046C20.496 66.2166 20.404 65.8446 20.22 65.5886C20.036 65.3246 19.768 65.1926 19.416 65.1926C19.064 65.1926 18.8 65.3246 18.624 65.5886C18.448 65.8446 18.36 66.2166 18.36 66.7046L18.36 68.6006L20.496 68.6006ZM24 58.2158L22.608 58.2158L22.38 58.2518L20.052 58.2518C19.516 58.2518 19.104 58.4038 18.816 58.7078C18.528 59.0038 18.384 59.4478 18.384 60.0398C18.384 60.4478 18.452 60.8358 18.588 61.2038C18.724 61.5718 18.904 61.8838 19.128 62.1398L18.492 62.5238C18.22 62.2038 18.012 61.8198 17.868 61.3718C17.716 60.9238 17.64 60.4518 17.64 59.9558C17.64 59.1398 17.844 58.5118 18.252 58.0718C18.652 57.6238 19.264 57.3998 20.088 57.3998L24 57.3998L24 58.2158ZM24.06 60.3878C24.06 60.8598 23.984 61.2718 23.832 61.6238C23.672 61.9678 23.456 62.2318 23.184 62.4158C22.904 62.5998 22.584 62.6918 22.224 62.6918C21.896 62.6918 21.6 62.6158 21.336 62.4638C21.064 62.3038 20.848 62.0478 20.688 61.6958C20.52 61.3358 20.436 60.8558 20.436 60.2558L20.436 58.0838L21.072 58.0838L21.072 60.2318C21.072 60.8398 21.18 61.2638 21.396 61.5038C21.612 61.7358 21.88 61.8518 22.2 61.8518C22.56 61.8518 22.848 61.7118 23.064 61.4318C23.28 61.1518 23.388 60.7598 23.388 60.2558C23.388 59.7758 23.28 59.3638 23.064 59.0198C22.84 58.6678 22.52 58.4118 22.104 58.2518L22.692 58.0598C23.108 58.2198 23.44 58.4998 23.688 58.8998C23.936 59.2918 24.06 59.7878 24.06 60.3878ZM24.06 51.8797C24.06 52.4237 23.936 52.9157 23.688 53.3557C23.432 53.7957 23.068 54.1477 22.596 54.4117C22.116 54.6677 21.532 54.7957 20.844 54.7957C20.156 54.7957 19.576 54.6677 19.104 54.4117C18.624 54.1557 18.26 53.8077 18.012 53.3677C17.764 52.9277 17.64 52.4317 17.64 51.8797C17.64 51.2797 17.776 50.7437 18.048 50.2717C18.312 49.7917 18.688 49.4157 19.176 49.1437C19.656 48.8717 20.212 48.7357 20.844 48.7357C21.484 48.7357 22.044 48.8717 22.524 49.1437C23.004 49.4157 23.38 49.7917 23.652 50.2717C23.924 50.7437 24.06 51.2797 24.06 51.8797ZM26.328 55.1317L17.7 55.1317L17.7 54.3157L19.596 54.3157L20.856 54.3997L22.128 54.2797L26.328 54.2797L26.328 55.1317ZM23.304 51.9397C23.304 51.4917 23.204 51.0917 23.004 50.7397C22.796 50.3877 22.508 50.1077 22.14 49.8997C21.764 49.6917 21.332 49.5877 20.844 49.5877C20.356 49.5877 19.928 49.6917 19.56 49.8997C19.192 50.1077 18.904 50.3877 18.696 50.7397C18.488 51.0917 18.384 51.4917 18.384 51.9397C18.384 52.3877 18.488 52.7917 18.696 53.1517C18.904 53.5037 19.192 53.7837 19.56 53.9917C19.928 54.1917 20.356 54.2917 20.844 54.2917C21.332 54.2917 21.764 54.1917 22.14 53.9917C22.508 53.7837 22.796 53.5037 23.004 53.1517C23.204 52.7917 23.304 52.3877 23.304 51.9397ZM24 46.9052L17.7 46.9052L17.7 46.0532L22.704 46.0532L17.7 41.8412L17.7 41.0852L24 41.0852L24 41.9372L18.984 41.9372L24 46.1372L24 46.9052ZM24 34.0235L20.88 36.6155L20.46 35.9075L24 33.0155L24 34.0235ZM24 38.6435L17.7 38.6435L17.7 37.7915L24 37.7915L24 38.6435ZM21.192 38.0555L20.46 38.0555L20.46 36.0275L21.192 36.0275L21.192 38.0555ZM20.94 35.8355L20.82 36.6275L17.7 34.1195L17.7 33.1955L20.94 35.8355ZM24.06 29.3015C24.06 29.9095 23.924 30.4575 23.652 30.9455C23.372 31.4255 22.992 31.8055 22.512 32.0855C22.024 32.3655 21.468 32.5055 20.844 32.5055C20.212 32.5055 19.656 32.3655 19.176 32.0855C18.696 31.8055 18.32 31.4255 18.048 30.9455C17.776 30.4655 17.64 29.9175 17.64 29.3015C17.64 28.6775 17.776 28.1255 18.048 27.6455C18.32 27.1575 18.696 26.7775 19.176 26.5055C19.656 26.2255 20.212 26.0855 20.844 26.0855C21.468 26.0855 22.024 26.2255 22.512 26.5055C22.992 26.7775 23.372 27.1575 23.652 27.6455C23.924 28.1335 24.06 28.6855 24.06 29.3015ZM23.304 29.3015C23.304 28.8455 23.204 28.4415 23.004 28.0895C22.796 27.7375 22.508 27.4615 22.14 27.2615C21.764 27.0535 21.332 26.9495 20.844 26.9495C20.348 26.9495 19.916 27.0535 19.548 27.2615C19.18 27.4615 18.896 27.7375 18.696 28.0895C18.488 28.4415 18.384 28.8415 18.384 29.2895C18.384 29.7375 18.488 30.1375 18.696 30.4895C18.896 30.8415 19.18 31.1215 19.548 31.3295C19.916 31.5375 20.348 31.6415 20.844 31.6415C21.332 31.6415 21.764 31.5375 22.14 31.3295C22.508 31.1215 22.796 30.8415 23.004 30.4895C23.204 30.1375 23.304 29.7415 23.304 29.3015ZM24.072 22.6194C24.072 23.0754 24.008 23.5274 23.88 23.9754C23.752 24.4234 23.556 24.8194 23.292 25.1634L22.656 24.8874C22.88 24.5834 23.052 24.2314 23.172 23.8314C23.284 23.4314 23.34 23.0354 23.34 22.6434C23.332 22.2514 23.276 21.9114 23.172 21.6234C23.068 21.3354 22.924 21.1114 22.74 20.9514C22.556 20.7914 22.348 20.7114 22.116 20.7114C21.78 20.7114 21.52 20.8634 21.336 21.1674C21.144 21.4714 21.048 21.8874 21.048 22.4154L21.048 23.4954L20.424 23.4954L20.424 22.4754C20.424 22.1634 20.384 21.8874 20.304 21.6474C20.224 21.4074 20.108 21.2234 19.956 21.0954C19.804 20.9594 19.624 20.8914 19.416 20.8914C19.192 20.8914 19 20.9714 18.84 21.1314C18.68 21.2834 18.56 21.4954 18.48 21.7674C18.4 22.0394 18.36 22.3474 18.36 22.6914C18.368 23.0034 18.416 23.3274 18.504 23.6634C18.584 23.9994 18.708 24.3314 18.876 24.6594L18.216 24.8994C18.024 24.5314 17.88 24.1674 17.784 23.8074C17.68 23.4394 17.628 23.0714 17.628 22.7034C17.612 22.1994 17.672 21.7474 17.808 21.3474C17.944 20.9394 18.14 20.6154 18.396 20.3754C18.644 20.1354 18.944 20.0154 19.296 20.0154C19.608 20.0154 19.88 20.1114 20.112 20.3034C20.344 20.4954 20.524 20.7514 20.652 21.0714C20.78 21.3914 20.844 21.7554 20.844 22.1634L20.616 22.1274C20.616 21.4074 20.756 20.8474 21.036 20.4474C21.316 20.0394 21.696 19.8354 22.176 19.8354C22.552 19.8354 22.884 19.9594 23.172 20.2074C23.452 20.4554 23.672 20.7914 23.832 21.2154C23.992 21.6314 24.072 22.0994 24.072 22.6194ZM24 13.9893L22.608 13.9893L22.38 14.0253L20.052 14.0253C19.516 14.0253 19.104 14.1773 18.816 14.4813C18.528 14.7773 18.384 15.2213 18.384 15.8133C18.384 16.2213 18.452 16.6093 18.588 16.9773C18.724 17.3453 18.904 17.6573 19.128 17.9133L18.492 18.2973C18.22 17.9773 18.012 17.5933 17.868 17.1453C17.716 16.6973 17.64 16.2253 17.64 15.7293C17.64 14.9133 17.844 14.2853 18.252 13.8453C18.652 13.3973 19.264 13.1733 20.088 13.1733L24 13.1733L24 13.9893ZM24.06 16.1613C24.06 16.6333 23.984 17.0453 23.832 17.3973C23.672 17.7413 23.456 18.0053 23.184 18.1893C22.904 18.3733 22.584 18.4653 22.224 18.4653C21.896 18.4653 21.6 18.3893 21.336 18.2373C21.064 18.0773 20.848 17.8213 20.688 17.4693C20.52 17.1093 20.436 16.6293 20.436 16.0293L20.436 13.8573L21.072 13.8573L21.072 16.0053C21.072 16.6133 21.18 17.0373 21.396 17.2773C21.612 17.5093 21.88 17.6253 22.2 17.6253C22.56 17.6253 22.848 17.4853 23.064 17.2053C23.28 16.9253 23.388 16.5333 23.388 16.0293C23.388 15.5493 23.28 15.1373 23.064 14.7933C22.84 14.4413 22.52 14.1853 22.104 14.0253L22.692 13.8333C23.108 13.9933 23.44 14.2733 23.688 14.6733C23.936 15.0653 24.06 15.5613 24.06 16.1613Z" fill="black"/>
</svg>
