<svg width="70" height="196" viewBox="0 0 70 196" fill="none" xmlns="http://www.w3.org/2000/svg">
<mask id="path-1-inside-1_2750_5" fill="white">
<path d="M0 12C0 5.37258 5.37258 0 12 0H70V196H12C5.37258 196 0 190.627 0 184V12Z"/>
</mask>
<path d="M0 12C0 5.37258 5.37258 0 12 0H70V196H12C5.37258 196 0 190.627 0 184V12Z" fill="white"/>
<path d="M-1 12C-1 4.8203 4.8203 -1 12 -1H70V1H12C5.92487 1 1 5.92487 1 12H-1ZM70 197H12C4.8203 197 -1 191.18 -1 184H1C1 190.075 5.92487 195 12 195H70V197ZM12 197C4.8203 197 -1 191.18 -1 184V12C-1 4.8203 4.8203 -1 12 -1V1C5.92487 1 1 5.92487 1 12V184C1 190.075 5.92487 195 12 195V197ZM70 0V196V0Z" fill="#DBA032" mask="url(#path-1-inside-1_2750_5)"/>
<path d="M36.096 174.928C36.096 175.077 36.0853 175.221 36.064 175.36C36.0533 175.499 36.0267 175.653 35.984 175.824L34.928 175.728C34.9707 175.547 34.992 175.371 34.992 175.2C34.992 174.72 34.8053 174.336 34.432 174.048C34.048 173.749 33.4613 173.525 32.672 173.376C31.872 173.227 30.848 173.131 29.6 173.088L24.8 172.928L24.8 165.328L36 165.328L36 166.496L25.504 166.496L25.824 166.192L25.824 172.176L25.488 171.888L29.568 172.032C30.688 172.075 31.6587 172.155 32.48 172.272C33.2907 172.389 33.968 172.56 34.512 172.784C35.0453 173.008 35.4453 173.296 35.712 173.648C35.968 174 36.096 174.427 36.096 174.928ZM36.08 158.221C36.08 159.096 35.8987 159.864 35.536 160.525C35.1627 161.187 34.656 161.704 34.016 162.077C33.3653 162.451 32.624 162.637 31.792 162.637C30.96 162.637 30.224 162.461 29.584 162.109C28.944 161.747 28.4427 161.256 28.08 160.637C27.7067 160.008 27.52 159.304 27.52 158.525C27.52 157.736 27.7013 157.037 28.064 156.429C28.416 155.811 28.9173 155.325 29.568 154.973C30.208 154.621 30.9493 154.445 31.792 154.445C31.8453 154.445 31.904 154.451 31.968 154.461C32.0213 154.461 32.08 154.461 32.144 154.461L32.144 161.773L31.296 161.773L31.296 155.069L31.632 155.517C31.024 155.517 30.4853 155.651 30.016 155.917C29.536 156.173 29.1627 156.525 28.896 156.973C28.6293 157.421 28.496 157.939 28.496 158.525C28.496 159.101 28.6293 159.619 28.896 160.077C29.1627 160.536 29.536 160.893 30.016 161.149C30.496 161.405 31.0453 161.533 31.664 161.533L31.84 161.533C32.48 161.533 33.0453 161.395 33.536 161.117C34.016 160.829 34.3947 160.435 34.672 159.933C34.9387 159.421 35.072 158.84 35.072 158.189C35.072 157.677 34.9813 157.203 34.8 156.765C34.6187 156.317 34.3413 155.933 33.968 155.613L34.704 154.973C35.152 155.347 35.4933 155.816 35.728 156.381C35.9627 156.936 36.08 157.549 36.08 158.221ZM32.448 146.619C32.6613 147.11 32.832 147.606 32.96 148.107C33.0773 148.598 33.136 149.088 33.136 149.579C33.136 150.571 32.912 151.355 32.464 151.931C32.0053 152.507 31.3013 152.795 30.352 152.795L27.6 152.795L27.6 151.675L30.288 151.675C30.928 151.675 31.408 151.467 31.728 151.051C32.048 150.635 32.208 150.075 32.208 149.371C32.208 148.944 32.1547 148.496 32.048 148.027C31.9307 147.558 31.7653 147.083 31.552 146.603L32.448 146.619ZM36 146.715L27.6 146.715L27.6 145.579L36 145.579L36 146.715ZM36.08 138.753C36.08 139.627 35.8987 140.395 35.536 141.057C35.1627 141.718 34.656 142.235 34.016 142.609C33.3653 142.982 32.624 143.169 31.792 143.169C30.96 143.169 30.224 142.993 29.584 142.641C28.944 142.278 28.4427 141.787 28.08 141.169C27.7067 140.539 27.52 139.835 27.52 139.057C27.52 138.267 27.7013 137.569 28.064 136.961C28.416 136.342 28.9173 135.857 29.568 135.505C30.208 135.153 30.9493 134.977 31.792 134.977C31.8453 134.977 31.904 134.982 31.968 134.993C32.0213 134.993 32.08 134.993 32.144 134.993L32.144 142.305L31.296 142.305L31.296 135.601L31.632 136.049C31.024 136.049 30.4853 136.182 30.016 136.449C29.536 136.705 29.1627 137.057 28.896 137.505C28.6293 137.953 28.496 138.47 28.496 139.057C28.496 139.633 28.6293 140.15 28.896 140.609C29.1627 141.067 29.536 141.425 30.016 141.681C30.496 141.937 31.0453 142.065 31.664 142.065L31.84 142.065C32.48 142.065 33.0453 141.926 33.536 141.649C34.016 141.361 34.3947 140.966 34.672 140.465C34.9387 139.953 35.072 139.371 35.072 138.721C35.072 138.209 34.9813 137.734 34.8 137.297C34.6187 136.849 34.3413 136.465 33.968 136.145L34.704 135.505C35.152 135.878 35.4933 136.347 35.728 136.913C35.9627 137.467 36.08 138.081 36.08 138.753ZM36 132.462L27.6 132.462L27.6 131.326L31.312 131.326L31.312 126.03L27.6 126.03L27.6 124.894L36 124.894L36 126.03L32.288 126.03L32.288 131.326L36 131.326L36 132.462ZM36 121.665L27.6 121.665L27.6 120.529L34.272 120.529L27.6 114.913L27.6 113.905L36 113.905L36 115.041L29.312 115.041L36 120.641L36 121.665ZM36.08 107.05C36.08 107.924 35.8987 108.692 35.536 109.354C35.1627 110.015 34.656 110.532 34.016 110.906C33.3653 111.279 32.624 111.466 31.792 111.466C30.96 111.466 30.224 111.29 29.584 110.938C28.944 110.575 28.4427 110.084 28.08 109.466C27.7067 108.836 27.52 108.132 27.52 107.354C27.52 106.564 27.7013 105.866 28.064 105.258C28.416 104.639 28.9173 104.154 29.568 103.802C30.208 103.45 30.9493 103.274 31.792 103.274C31.8453 103.274 31.904 103.279 31.968 103.29C32.0213 103.29 32.08 103.29 32.144 103.29L32.144 110.602L31.296 110.602L31.296 103.898L31.632 104.346C31.024 104.346 30.4853 104.479 30.016 104.746C29.536 105.002 29.1627 105.354 28.896 105.802C28.6293 106.25 28.496 106.767 28.496 107.354C28.496 107.93 28.6293 108.447 28.896 108.906C29.1627 109.364 29.536 109.722 30.016 109.978C30.496 110.234 31.0453 110.362 31.664 110.362L31.84 110.362C32.48 110.362 33.0453 110.223 33.536 109.946C34.016 109.658 34.3947 109.263 34.672 108.762C34.9387 108.25 35.072 107.668 35.072 107.018C35.072 106.506 34.9813 106.031 34.8 105.594C34.6187 105.146 34.3413 104.762 33.968 104.442L34.704 103.802C35.152 104.175 35.4933 104.644 35.728 105.21C35.9627 105.764 36.08 106.378 36.08 107.05ZM36 96.5715L27.6 96.5715L27.6 92.8595C27.6 91.9102 27.7813 91.1635 28.144 90.6195C28.5067 90.0648 29.04 89.7875 29.744 89.7875C30.4267 89.7875 30.9547 90.0488 31.328 90.5715C31.6907 91.0942 31.872 91.7822 31.872 92.6355L31.536 92.4115C31.536 91.4088 31.7227 90.6728 32.096 90.2035C32.4693 89.7342 33.008 89.4995 33.712 89.4995C34.4373 89.4995 35.0027 89.7662 35.408 90.2995C35.8027 90.8222 36 91.6382 36 92.7475L36 96.5715ZM35.104 95.4675L35.104 92.7955C35.104 92.0808 34.992 91.5422 34.768 91.1795C34.5333 90.8062 34.16 90.6195 33.648 90.6195C33.136 90.6195 32.7627 90.7848 32.528 91.1155C32.2933 91.4462 32.176 91.9688 32.176 92.6835L32.176 95.4675L35.104 95.4675ZM31.328 95.4675L31.328 92.9395C31.328 92.2888 31.2053 91.7928 30.96 91.4515C30.7147 91.0995 30.3573 90.9235 29.888 90.9235C29.4187 90.9235 29.0667 91.0995 28.832 91.4515C28.5973 91.7928 28.48 92.2888 28.48 92.9395L28.48 95.4675L31.328 95.4675ZM36 81.6211L34.144 81.6211L33.84 81.6691L30.736 81.6691C30.0213 81.6691 29.472 81.8718 29.088 82.2771C28.704 82.6718 28.512 83.2638 28.512 84.0531C28.512 84.5971 28.6027 85.1145 28.784 85.6051C28.9653 86.0958 29.2053 86.5118 29.504 86.8531L28.656 87.3651C28.2933 86.9385 28.016 86.4265 27.824 85.8291C27.6213 85.2318 27.52 84.6025 27.52 83.9411C27.52 82.8531 27.792 82.0158 28.336 81.4291C28.8693 80.8318 29.6853 80.5331 30.784 80.5331L36 80.5331L36 81.6211ZM36.08 84.5171C36.08 85.1465 35.9787 85.6958 35.776 86.1651C35.5627 86.6238 35.2747 86.9758 34.912 87.2211C34.5387 87.4665 34.112 87.5891 33.632 87.5891C33.1947 87.5891 32.8 87.4878 32.448 87.2851C32.0853 87.0718 31.7973 86.7305 31.584 86.2611C31.36 85.7811 31.248 85.1411 31.248 84.3411L31.248 81.4451L32.096 81.4451L32.096 84.3091C32.096 85.1198 32.24 85.6851 32.528 86.0051C32.816 86.3145 33.1733 86.4691 33.6 86.4691C34.08 86.4691 34.464 86.2825 34.752 85.9091C35.04 85.5358 35.184 85.0131 35.184 84.3411C35.184 83.7011 35.04 83.1518 34.752 82.6931C34.4533 82.2238 34.0267 81.8825 33.472 81.6691L34.256 81.4131C34.8107 81.6265 35.2533 81.9998 35.584 82.5331C35.9147 83.0558 36.08 83.7171 36.08 84.5171ZM36.08 73.173C36.08 73.8983 35.9147 74.5543 35.584 75.141C35.2427 75.7277 34.7573 76.197 34.128 76.549C33.488 76.8903 32.7093 77.061 31.792 77.061C30.8747 77.061 30.1013 76.8903 29.472 76.549C28.832 76.2077 28.3467 75.7437 28.016 75.157C27.6853 74.5703 27.52 73.909 27.52 73.173C27.52 72.373 27.7013 71.6583 28.064 71.029C28.416 70.389 28.9173 69.8877 29.568 69.525C30.208 69.1623 30.9493 68.981 31.792 68.981C32.6453 68.981 33.392 69.1623 34.032 69.525C34.672 69.8877 35.1733 70.389 35.536 71.029C35.8987 71.6583 36.08 72.373 36.08 73.173ZM39.104 77.509L27.6 77.509L27.6 76.421L30.128 76.421L31.808 76.533L33.504 76.373L39.104 76.373L39.104 77.509ZM35.072 73.253C35.072 72.6557 34.9387 72.1223 34.672 71.653C34.3947 71.1837 34.0107 70.8103 33.52 70.533C33.0187 70.2557 32.4427 70.117 31.792 70.117C31.1413 70.117 30.5707 70.2557 30.08 70.533C29.5893 70.8103 29.2053 71.1837 28.928 71.653C28.6507 72.1223 28.512 72.6557 28.512 73.253C28.512 73.8503 28.6507 74.389 28.928 74.869C29.2053 75.3383 29.5893 75.7117 30.08 75.989C30.5707 76.2557 31.1413 76.389 31.792 76.389C32.4427 76.389 33.0187 76.2557 33.52 75.989C34.0107 75.7117 34.3947 75.3383 34.672 74.869C34.9387 74.389 35.072 73.8503 35.072 73.253ZM36 66.5402L27.6 66.5402L27.6 65.4042L34.272 65.4042L27.6 59.7882L27.6 58.7802L36 58.7802L36 59.9162L29.312 59.9162L36 65.5162L36 66.5402ZM36 49.3646L31.84 52.8206L31.28 51.8766L36 48.0206L36 49.3646ZM36 55.5246L27.6 55.5246L27.6 54.3886L36 54.3886L36 55.5246ZM32.256 54.7406L31.28 54.7406L31.28 52.0366L32.256 52.0366L32.256 54.7406ZM31.92 51.7806L31.76 52.8366L27.6 49.4926L27.6 48.2606L31.92 51.7806ZM36.08 43.0686C36.08 43.8793 35.8987 44.61 35.536 45.2606C35.1627 45.9006 34.656 46.4073 34.016 46.7806C33.3653 47.154 32.624 47.3406 31.792 47.3406C30.9493 47.3406 30.208 47.154 29.568 46.7806C28.928 46.4073 28.4267 45.9006 28.064 45.2606C27.7013 44.6206 27.52 43.89 27.52 43.0686C27.52 42.2366 27.7013 41.5006 28.064 40.8606C28.4267 40.21 28.928 39.7033 29.568 39.3406C30.208 38.9673 30.9493 38.7806 31.792 38.7806C32.624 38.7806 33.3653 38.9673 34.016 39.3406C34.656 39.7033 35.1627 40.21 35.536 40.8606C35.8987 41.5113 36.08 42.2473 36.08 43.0686ZM35.072 43.0686C35.072 42.4606 34.9387 41.922 34.672 41.4526C34.3947 40.9833 34.0107 40.6153 33.52 40.3486C33.0187 40.0713 32.4427 39.9326 31.792 39.9326C31.1307 39.9326 30.5547 40.0713 30.064 40.3486C29.5733 40.6153 29.1947 40.9833 28.928 41.4526C28.6507 41.922 28.512 42.4553 28.512 43.0526C28.512 43.65 28.6507 44.1833 28.928 44.6526C29.1947 45.122 29.5733 45.4953 30.064 45.7726C30.5547 46.05 31.1307 46.1886 31.792 46.1886C32.4427 46.1886 33.0187 46.05 33.52 45.7726C34.0107 45.4953 34.3947 45.122 34.672 44.6526C34.9387 44.1833 35.072 43.6553 35.072 43.0686ZM36.096 34.1592C36.096 34.7672 36.0107 35.3699 35.84 35.9672C35.6693 36.5646 35.408 37.0926 35.056 37.5512L34.208 37.1832C34.5067 36.7779 34.736 36.3086 34.896 35.7752C35.0453 35.2419 35.12 34.7139 35.12 34.1912C35.1093 33.6686 35.0347 33.2152 34.896 32.8312C34.7573 32.4472 34.5653 32.1486 34.32 31.9352C34.0747 31.7219 33.7973 31.6152 33.488 31.6152C33.04 31.6152 32.6933 31.8179 32.448 32.2232C32.192 32.6286 32.064 33.1832 32.064 33.8872L32.064 35.3272L31.232 35.3272L31.232 33.9672C31.232 33.5512 31.1787 33.1832 31.072 32.8632C30.9653 32.5432 30.8107 32.2979 30.608 32.1272C30.4053 31.9459 30.1653 31.8552 29.888 31.8552C29.5893 31.8552 29.3333 31.9619 29.12 32.1752C28.9067 32.3779 28.7467 32.6606 28.64 33.0232C28.5333 33.3859 28.48 33.7966 28.48 34.2552C28.4907 34.6712 28.5547 35.1032 28.672 35.5512C28.7787 35.9992 28.944 36.4419 29.168 36.8792L28.288 37.1992C28.032 36.7086 27.84 36.2232 27.712 35.7432C27.5733 35.2526 27.504 34.7619 27.504 34.2712C27.4827 33.5992 27.5627 32.9966 27.744 32.4632C27.9253 31.9192 28.1867 31.4872 28.528 31.1672C28.8587 30.8472 29.2587 30.6872 29.728 30.6872C30.144 30.6872 30.5067 30.8152 30.816 31.0712C31.1253 31.3272 31.3653 31.6686 31.536 32.0952C31.7067 32.5219 31.792 33.0072 31.792 33.5512L31.488 33.5032C31.488 32.5432 31.6747 31.7966 32.048 31.2632C32.4213 30.7192 32.928 30.4472 33.568 30.4472C34.0693 30.4472 34.512 30.6126 34.896 30.9432C35.2693 31.2739 35.5627 31.7219 35.776 32.2872C35.9893 32.8419 36.096 33.4659 36.096 34.1592ZM36 22.6524L34.144 22.6524L33.84 22.7004L30.736 22.7004C30.0213 22.7004 29.472 22.903 29.088 23.3084C28.704 23.703 28.512 24.295 28.512 25.0844C28.512 25.6284 28.6027 26.1457 28.784 26.6364C28.9653 27.127 29.2053 27.543 29.504 27.8844L28.656 28.3964C28.2933 27.9697 28.016 27.4577 27.824 26.8604C27.6213 26.263 27.52 25.6337 27.52 24.9724C27.52 23.8844 27.792 23.047 28.336 22.4604C28.8693 21.863 29.6853 21.5644 30.784 21.5644L36 21.5644L36 22.6524ZM36.08 25.5484C36.08 26.1777 35.9787 26.727 35.776 27.1964C35.5627 27.655 35.2747 28.007 34.912 28.2524C34.5387 28.4977 34.112 28.6204 33.632 28.6204C33.1947 28.6204 32.8 28.519 32.448 28.3164C32.0853 28.103 31.7973 27.7617 31.584 27.2924C31.36 26.8124 31.248 26.1724 31.248 25.3724L31.248 22.4764L32.096 22.4764L32.096 25.3404C32.096 26.151 32.24 26.7164 32.528 27.0364C32.816 27.3457 33.1733 27.5004 33.6 27.5004C34.08 27.5004 34.464 27.3137 34.752 26.9404C35.04 26.567 35.184 26.0444 35.184 25.3724C35.184 24.7324 35.04 24.183 34.752 23.7244C34.4533 23.255 34.0267 22.9137 33.472 22.7004L34.256 22.4444C34.8107 22.6577 35.2533 23.031 35.584 23.5644C35.9147 24.087 36.08 24.7484 36.08 25.5484Z" fill="black"/>
</svg>
